<svg width="169" height="85" viewBox="0 0 169 85" fill="none" xmlns="http://www.w3.org/2000/svg">
<path d="M78.5901 19.4493C83.1701 19.4493 86.5901 21.2393 86.5901 26.0393C86.6484 27.2083 86.3571 28.3683 85.7533 29.371C85.1495 30.3738 84.2606 31.1739 83.2001 31.6693C86.5901 32.2293 88.8901 34.1493 88.8901 38.2293C88.8901 42.4993 85.8101 45.3593 80.5001 45.3593H72.0501C71.8432 45.3593 71.6448 45.2771 71.4985 45.1308C71.3523 44.9845 71.2701 44.7862 71.2701 44.5793V20.2193C71.2687 20.1178 71.2877 20.0171 71.326 19.923C71.3642 19.829 71.4208 19.7436 71.4926 19.6718C71.5644 19.6 71.6498 19.5434 71.7438 19.5052C71.8379 19.4669 71.9386 19.4479 72.0401 19.4493H78.5901ZM76.1701 29.9993H77.2701C80.1901 29.9993 81.8201 28.9993 81.8201 26.4793C81.8201 24.2493 80.2201 23.2193 77.2701 23.2193H76.1701V29.9993ZM76.1701 41.5293H78.8001C81.9501 41.5293 83.7101 40.3993 83.7101 38.0093C83.7101 35.3693 81.9501 34.2393 78.8001 34.2393H76.1701V41.5293Z" fill="#E09E00"/>
<path d="M106.21 20.2193V22.9993C106.21 23.2062 106.128 23.4045 105.982 23.5508C105.835 23.6971 105.637 23.7793 105.43 23.7793H96.7901V30.2493H105.06C105.162 30.2493 105.263 30.2695 105.357 30.3088C105.451 30.3482 105.537 30.4058 105.608 30.4783C105.68 30.5509 105.736 30.637 105.774 30.7315C105.813 30.8261 105.831 30.9273 105.83 31.0293V33.7693C105.831 33.8712 105.813 33.9724 105.774 34.067C105.736 34.1616 105.68 34.2477 105.608 34.3202C105.537 34.3928 105.451 34.4504 105.357 34.4897C105.263 34.529 105.162 34.5493 105.06 34.5493H96.7901V41.0893H105.43C105.637 41.0893 105.835 41.1715 105.982 41.3177C106.128 41.464 106.21 41.6624 106.21 41.8693V44.6093C106.21 44.8162 106.128 45.0145 105.982 45.1608C105.835 45.3071 105.637 45.3893 105.43 45.3893H92.6701C92.4633 45.3893 92.2649 45.3071 92.1186 45.1608C91.9723 45.0145 91.8901 44.8162 91.8901 44.6093V20.2193C91.8901 20.1173 91.9104 20.0164 91.9497 19.9223C91.989 19.8282 92.0466 19.7429 92.1192 19.6712C92.1918 19.5996 92.2778 19.5431 92.3724 19.505C92.467 19.4669 92.5682 19.448 92.6701 19.4493H105.43C105.532 19.448 105.633 19.4669 105.728 19.505C105.822 19.5431 105.909 19.5996 105.981 19.6712C106.054 19.7429 106.111 19.8282 106.151 19.9223C106.19 20.0164 106.21 20.1173 106.21 20.2193Z" fill="#E09E00"/>
<path d="M119.29 19.4493C124.38 19.4493 127.99 22.0793 127.99 27.2393C128.072 28.8263 127.653 30.3989 126.791 31.7342C125.93 33.0696 124.67 34.0999 123.19 34.6793C123.076 34.7241 122.973 34.7953 122.891 34.8871C122.81 34.979 122.751 35.0889 122.72 35.2078C122.688 35.3268 122.686 35.4514 122.712 35.5716C122.738 35.6918 122.792 35.8041 122.87 35.8993L129.59 44.0893C129.682 44.2034 129.74 44.3411 129.758 44.4867C129.775 44.6323 129.751 44.7799 129.689 44.9125C129.626 45.0451 129.527 45.1573 129.404 45.2364C129.28 45.3154 129.137 45.358 128.99 45.3593H124.77C124.651 45.3601 124.533 45.3334 124.425 45.2814C124.318 45.2294 124.224 45.1534 124.15 45.0593L116.92 35.6793C116.848 35.5827 116.755 35.5044 116.647 35.4506C116.539 35.3967 116.421 35.3689 116.3 35.3693H115.52V44.5793C115.521 44.6821 115.502 44.7841 115.463 44.8794C115.425 44.9746 115.367 45.0611 115.295 45.1338C115.222 45.2065 115.135 45.2639 115.04 45.3027C114.945 45.3414 114.843 45.3606 114.74 45.3593H111.4C111.193 45.3593 110.995 45.2771 110.849 45.1308C110.702 44.9846 110.62 44.7862 110.62 44.5793V20.2193C110.62 20.1173 110.64 20.0164 110.68 19.9223C110.719 19.8282 110.777 19.7429 110.849 19.6712C110.922 19.5996 111.008 19.5431 111.102 19.505C111.197 19.4669 111.298 19.448 111.4 19.4493H119.29ZM115.52 31.4493H117.79C120.58 31.4493 122.79 30.3193 122.79 27.4493C122.79 24.5793 120.53 23.4493 117.79 23.4493H115.52V31.4493Z" fill="#E09E00"/>
<path d="M142.9 19.4805C144.577 19.5 146.233 19.8507 147.774 20.5123C149.315 21.174 150.71 22.1336 151.879 23.336C153.048 24.5384 153.968 25.96 154.586 27.519C155.204 29.078 155.508 30.7437 155.48 32.4205C155.548 34.1147 155.272 35.8051 154.671 37.3903C154.069 38.9755 153.153 40.4228 151.978 41.6455C150.803 42.8681 149.394 43.8408 147.834 44.5052C146.274 45.1697 144.596 45.5122 142.9 45.5122C141.204 45.5122 139.526 45.1697 137.966 44.5052C136.406 43.8408 134.997 42.8681 133.822 41.6455C132.647 40.4228 131.731 38.9755 131.13 37.3903C130.528 35.8051 130.252 34.1147 130.32 32.4205C130.291 30.7433 130.594 29.077 131.211 27.5174C131.829 25.9578 132.749 24.5358 133.918 23.3331C135.087 22.1304 136.483 21.1708 138.024 20.5096C139.566 19.8484 141.223 19.4987 142.9 19.4805ZM142.9 40.8305C147.68 40.8305 150.37 36.7705 150.37 32.4205C150.37 28.0705 147.68 24.0005 142.9 24.0005C138.12 24.0005 135.43 28.0005 135.43 32.4105C135.43 36.8205 138.12 40.8305 142.9 40.8305Z" fill="#E09E00"/>
<path d="M78.7999 51.9997C80.6468 51.9451 82.458 52.516 83.9399 53.6197C84.0535 53.7088 84.1298 53.8371 84.1539 53.9795C84.1779 54.1219 84.148 54.2682 84.0699 54.3897L82.9999 55.9997C82.9583 56.0646 82.9043 56.1205 82.8408 56.1643C82.7774 56.2081 82.7059 56.2388 82.6305 56.2546C82.5551 56.2704 82.4773 56.271 82.4016 56.2565C82.326 56.2419 82.254 56.2124 82.1899 56.1697C81.261 55.5262 80.1598 55.1777 79.0299 55.1697C77.2999 55.1697 76.3899 56.1697 76.3899 57.3697C76.3899 58.3697 77.3899 59.0497 78.8199 59.6897C81.3899 60.8697 84.9999 62.1397 84.9999 65.5697C84.9999 69.7497 81.8199 71.4097 78.2299 71.4097C75.8455 71.4741 73.5294 70.61 71.7699 68.9997C71.6671 68.9011 71.6041 68.7681 71.5931 68.6261C71.582 68.4841 71.6236 68.343 71.7099 68.2297L72.9999 66.4397C73.0469 66.3743 73.107 66.3195 73.1764 66.2786C73.2458 66.2378 73.3229 66.2119 73.4028 66.2025C73.4828 66.1931 73.5638 66.2004 73.6408 66.224C73.7178 66.2476 73.789 66.287 73.8499 66.3397C74.9724 67.388 76.4184 68.0229 77.9499 68.1397C79.2499 68.1397 81.1099 67.7497 81.1099 65.7797C81.1099 64.1897 79.1799 63.4097 76.6799 62.2997C74.1799 61.1897 72.9099 59.5297 72.9099 57.5297C72.9331 56.7797 73.104 56.0417 73.4127 55.3578C73.7213 54.6739 74.1617 54.0575 74.7088 53.544C75.2558 53.0304 75.8986 52.6296 76.6006 52.3647C77.3026 52.0997 78.0499 51.9757 78.7999 51.9997Z" fill="#E09E00"/>
<path d="M96.7001 52.8905V54.8905C96.7001 55.0444 96.639 55.1919 96.5302 55.3007C96.4214 55.4094 96.2739 55.4705 96.1201 55.4705H89.8901V60.1005H95.8901C96.0439 60.1005 96.1914 60.1617 96.3002 60.2704C96.409 60.3792 96.4701 60.5267 96.4701 60.6805V62.6805C96.4701 62.8344 96.409 62.9819 96.3002 63.0907C96.1914 63.1994 96.0439 63.2605 95.8901 63.2605H89.8901V67.9806H96.1201C96.1971 67.9805 96.2733 67.9959 96.3444 68.0256C96.4154 68.0554 96.4798 68.099 96.5338 68.1539C96.5878 68.2089 96.6303 68.274 96.6588 68.3455C96.6874 68.417 96.7014 68.4935 96.7001 68.5705V70.5106C96.7001 70.6644 96.639 70.8119 96.5302 70.9207C96.4214 71.0294 96.2739 71.0905 96.1201 71.0905H86.9301C86.7763 71.0905 86.6287 71.0294 86.52 70.9207C86.4112 70.8119 86.3501 70.6644 86.3501 70.5106V52.8905C86.3501 52.7367 86.4112 52.5892 86.52 52.4804C86.6287 52.3717 86.7763 52.3105 86.9301 52.3105H96.1201C96.2739 52.3105 96.4214 52.3717 96.5302 52.4804C96.639 52.5892 96.7001 52.7367 96.7001 52.8905Z" fill="#E09E00"/>
<path d="M111.27 52.8906V54.8906C111.27 55.0445 111.209 55.192 111.1 55.3008C110.991 55.4095 110.844 55.4706 110.69 55.4706H106.45V70.4706C106.45 70.6245 106.389 70.772 106.28 70.8808C106.171 70.9895 106.024 71.0506 105.87 71.0506H103.49C103.336 71.0506 103.189 70.9895 103.08 70.8808C102.971 70.772 102.91 70.6245 102.91 70.4706V55.4706H98.6798C98.5251 55.4707 98.3765 55.4099 98.2662 55.3014C98.1558 55.1929 98.0925 55.0454 98.0898 54.8906V52.8906C98.0925 52.7359 98.1558 52.5884 98.2662 52.4799C98.3765 52.3714 98.5251 52.3106 98.6798 52.3106H110.68C110.757 52.3093 110.833 52.3233 110.905 52.3519C110.976 52.3804 111.042 52.4229 111.096 52.4769C111.151 52.5309 111.195 52.5953 111.225 52.6663C111.255 52.7374 111.27 52.8136 111.27 52.8906Z" fill="#E09E00"/>
<path d="M115.47 52.1504C115.547 52.1504 115.623 52.1657 115.694 52.1955C115.765 52.2252 115.83 52.2689 115.884 52.3238C115.938 52.3787 115.98 52.4438 116.009 52.5154C116.037 52.5869 116.051 52.6634 116.05 52.7404V63.2404C116.05 66.6004 117.34 67.9104 119.72 67.9104C122.1 67.9104 123.09 66.6004 123.09 63.2404V52.7404C123.089 52.6634 123.103 52.5869 123.131 52.5154C123.16 52.4438 123.202 52.3787 123.256 52.3238C123.31 52.2689 123.375 52.2252 123.446 52.1955C123.517 52.1657 123.593 52.1504 123.67 52.1504H126.05C126.127 52.1504 126.203 52.1657 126.274 52.1955C126.345 52.2252 126.41 52.2689 126.464 52.3238C126.518 52.3787 126.56 52.4438 126.589 52.5154C126.617 52.5869 126.631 52.6634 126.63 52.7404V64.2404C126.63 68.8704 124.18 71.2404 119.57 71.2404C114.96 71.2404 112.51 68.8604 112.51 64.2404V52.7404C112.509 52.6634 112.523 52.5869 112.551 52.5154C112.58 52.4438 112.622 52.3787 112.676 52.3238C112.73 52.2689 112.795 52.2252 112.866 52.1955C112.937 52.1657 113.013 52.1504 113.09 52.1504H115.47Z" fill="#E09E00"/>
<path d="M133.74 52.3097C134.995 52.2687 136.246 52.4805 137.419 52.9327C138.591 53.3848 139.66 54.0681 140.562 54.9418C141.465 55.8154 142.183 56.8617 142.673 58.0184C143.163 59.175 143.416 60.4184 143.416 61.6747C143.416 62.9309 143.163 64.1744 142.673 65.331C142.183 66.4877 141.465 67.5339 140.562 68.4076C139.66 69.2813 138.591 69.9645 137.419 70.4167C136.246 70.8689 134.995 71.0807 133.74 71.0397H129.24C129.163 71.041 129.086 71.027 129.015 70.9984C128.943 70.9699 128.878 70.9274 128.823 70.8734C128.768 70.8194 128.725 70.755 128.695 70.684C128.665 70.6129 128.65 70.5367 128.65 70.4597V52.8897C128.65 52.8127 128.665 52.7364 128.695 52.6654C128.725 52.5944 128.768 52.53 128.823 52.476C128.878 52.422 128.943 52.3795 129.015 52.3509C129.086 52.3224 129.163 52.3084 129.24 52.3097H133.74ZM132.2 67.8897H133.33C134.935 67.8253 136.453 67.1423 137.566 65.9838C138.679 64.8253 139.301 63.2812 139.301 61.6747C139.301 60.0682 138.679 58.524 137.566 57.3655C136.453 56.207 134.935 55.5241 133.33 55.4597H132.2V67.8897Z" fill="#E09E00"/>
<path d="M148.41 52.7405V70.3105C148.41 70.3875 148.395 70.4638 148.365 70.5348C148.335 70.6059 148.291 70.6702 148.237 70.7242C148.182 70.7782 148.116 70.8207 148.045 70.8493C147.973 70.8778 147.897 70.8919 147.82 70.8905H145.65C145.21 70.8905 144.86 70.5405 145.02 70.2605V53.1505C145.025 53.1107 145.025 53.0704 145.02 53.0305C144.986 52.9288 144.978 52.8204 144.995 52.7146C145.011 52.6088 145.054 52.5085 145.117 52.4223C145.181 52.3361 145.264 52.2664 145.36 52.2191C145.457 52.1719 145.563 52.1483 145.67 52.1505H147.84C147.916 52.1518 147.991 52.1681 148.061 52.1985C148.131 52.2288 148.194 52.2727 148.247 52.3275C148.3 52.3822 148.342 52.4469 148.37 52.5178C148.398 52.5887 148.411 52.6644 148.41 52.7405Z" fill="#E09E00"/>
<path d="M159.33 52.1794C161.192 52.1277 163.027 52.6326 164.6 53.6296C166.173 54.6265 167.413 56.0702 168.162 57.7759C168.91 59.4816 169.132 61.3718 168.8 63.2045C168.468 65.0373 167.597 66.7293 166.298 68.064C164.999 69.3988 163.331 70.3156 161.508 70.6972C159.685 71.0788 157.789 70.9078 156.064 70.2062C154.338 69.5045 152.862 68.304 151.822 66.7583C150.783 65.2126 150.229 63.392 150.23 61.5294C150.21 60.317 150.43 59.1127 150.877 57.9857C151.325 56.8587 151.99 55.8311 152.836 54.9622C153.682 54.0933 154.691 53.4001 155.805 52.9225C156.92 52.445 158.118 52.1924 159.33 52.1794ZM159.33 67.6094C162.78 67.6094 164.73 64.6794 164.73 61.5294C164.73 58.3794 162.78 55.4594 159.33 55.4594C155.88 55.4594 153.93 58.3894 153.93 61.5294C153.93 64.6694 155.88 67.6094 159.33 67.6094Z" fill="#E09E00"/>
<path d="M34.61 3.30652e-05C28.8787 3.30652e-05 23.3821 2.27679 19.3294 6.32946C15.2768 10.3821 13 15.8787 13 21.61C13 21.61 13 21.61 13 21.68V58.3H23.8V40.3C26.67 41.9658 29.8851 42.9482 33.196 43.1712C36.5069 43.3941 39.8246 42.8516 42.892 41.5856C45.9595 40.3196 48.6941 38.3642 50.884 35.871C53.0739 33.3778 54.6602 30.4138 55.5199 27.2087C56.3797 24.0036 56.4897 20.6436 55.8416 17.3891C55.1934 14.1346 53.8045 11.0731 51.7824 8.44199C49.7604 5.81082 47.1595 3.68068 44.1815 2.2167C41.2035 0.752719 37.9284 -0.00577143 34.61 3.30652e-05ZM34.61 32.41C32.4711 32.412 30.3798 31.7794 28.6005 30.5924C26.8213 29.4053 25.4342 27.7171 24.6148 25.7415C23.7954 23.7658 23.5804 21.5914 23.9972 19.4936C24.414 17.3957 25.4438 15.4686 26.9562 13.9562C28.4686 12.4438 30.3957 11.414 32.4935 10.9973C34.5914 10.5805 36.7657 10.7954 38.7414 11.6148C40.7171 12.4342 42.4053 13.8213 43.5924 15.6006C44.7794 17.3798 45.412 19.4712 45.41 21.61C45.41 24.4744 44.2721 27.2214 42.2468 29.2468C40.2214 31.2722 37.4743 32.41 34.61 32.41Z" fill="url(#paint0_linear_365_88)"/>
<path d="M35.4399 0C39.6284 0.250156 43.5564 2.11566 46.397 5.20377C49.2376 8.29189 50.7693 12.3617 50.6695 16.5564C50.5697 20.7512 48.8463 24.7435 45.862 27.6931C42.8778 30.6427 38.8655 32.3193 34.6699 32.37V43.17C40.3508 43.2029 45.8157 40.9954 49.8799 37.026C53.9441 33.0567 56.2801 27.6455 56.3814 21.9654C56.4827 16.2853 54.3412 10.7942 50.4212 6.68247C46.5011 2.57073 41.1184 0.169733 35.4399 0V0Z" fill="url(#paint1_linear_365_88)"/>
<path d="M38.9 32.3996H6.47C4.75313 32.4023 3.10748 33.0862 1.89441 34.3011C0.681337 35.5161 -2.04436e-06 37.1628 0 38.8796H0C0 40.5956 0.681659 42.2413 1.89502 43.4546C3.10838 44.668 4.75405 45.3496 6.47 45.3496H16.47C13.6331 50.2912 12.5057 56.0306 13.2624 61.6781C14.0192 67.3256 16.6179 72.5657 20.6556 76.5861C24.6934 80.6064 29.9447 83.1825 35.5954 83.9149C41.2461 84.6472 46.9806 83.495 51.9099 80.6368C56.8391 77.7786 60.6878 73.3742 62.8593 68.1062C65.0308 62.8382 65.4037 57.001 63.9203 51.4995C62.4369 45.998 59.1801 41.1395 54.6546 37.6773C50.1292 34.215 44.588 32.3424 38.89 32.3496L38.9 32.3996ZM38.9 71.2396C36.3379 71.2416 33.8327 70.4835 31.7016 69.0613C29.5704 67.6391 27.9091 65.6167 26.9277 63.25C25.9463 60.8833 25.689 58.2787 26.1883 55.7657C26.6877 53.2527 27.9213 50.9443 29.733 49.1326C31.5447 47.3209 33.853 46.0873 36.366 45.588C38.879 45.0886 41.4837 45.3459 43.8504 46.3273C46.2171 47.3087 48.2395 48.9701 49.6617 51.1012C51.0839 53.2324 51.842 55.7375 51.84 58.2996C51.84 59.9989 51.5053 61.6816 50.855 63.2516C50.2047 64.8215 49.2515 66.248 48.0499 67.4496C46.8484 68.6512 45.4219 69.6043 43.8519 70.2546C42.282 70.9049 40.5993 71.2396 38.9 71.2396Z" fill="url(#paint2_linear_365_88)"/>
<path d="M13 45.3594V58.3594C13.0121 65.0263 15.5966 71.4314 20.2149 76.2397C24.8332 81.048 31.129 83.8886 37.79 84.1694C32.7406 83.8884 28.0002 81.6479 24.5779 77.9246C21.1556 74.2013 19.3216 69.2893 19.4662 64.2341C19.6109 59.179 21.7228 54.3799 25.3524 50.8584C28.9821 47.3369 33.8428 45.3711 38.9 45.3794H39L13 45.3594Z" fill="url(#paint3_linear_365_88)"/>
<defs>
<linearGradient id="paint0_linear_365_88" x1="49.89" y1="6.33003" x2="5.46" y2="50.76" gradientUnits="userSpaceOnUse">
<stop offset="0.02" stop-color="#7900DD"/>
<stop offset="0.07" stop-color="#8411C6"/>
<stop offset="0.22" stop-color="#A44280"/>
<stop offset="0.36" stop-color="#BE6A49"/>
<stop offset="0.48" stop-color="#D08621"/>
<stop offset="0.58" stop-color="#DC9809"/>
<stop offset="0.63" stop-color="#E09E00"/>
<stop offset="0.68" stop-color="#E3AC1C"/>
<stop offset="0.77" stop-color="#EACE5E"/>
</linearGradient>
<linearGradient id="paint1_linear_365_88" x1="26.2899" y1="34.82" x2="52.3399" y2="8.77" gradientUnits="userSpaceOnUse">
<stop stop-color="#7900E1"/>
<stop offset="0.08" stop-color="#7D06D8"/>
<stop offset="0.21" stop-color="#8918C0"/>
<stop offset="0.37" stop-color="#9C3598"/>
<stop offset="0.56" stop-color="#B65C61"/>
<stop offset="0.77" stop-color="#D78E1B"/>
<stop offset="0.85" stop-color="#E4A200"/>
<stop offset="1" stop-color="#EED25E"/>
</linearGradient>
<linearGradient id="paint2_linear_365_88" x1="14.49" y1="70.5096" x2="51.11" y2="33.8896" gradientUnits="userSpaceOnUse">
<stop offset="0.02" stop-color="#7900DD"/>
<stop offset="0.8" stop-color="#E09E00"/>
<stop offset="1" stop-color="#EACE5E"/>
</linearGradient>
<linearGradient id="paint3_linear_365_88" x1="41.87" y1="48.2894" x2="17.07" y2="73.0894" gradientUnits="userSpaceOnUse">
<stop stop-color="#7900E1"/>
<stop offset="0.08" stop-color="#7D06D8"/>
<stop offset="0.21" stop-color="#8918C0"/>
<stop offset="0.37" stop-color="#9C3598"/>
<stop offset="0.56" stop-color="#B65C61"/>
<stop offset="0.77" stop-color="#D78E1B"/>
<stop offset="0.85" stop-color="#E4A200"/>
<stop offset="0.87" stop-color="#E6AB11"/>
<stop offset="0.9" stop-color="#E9BC32"/>
<stop offset="0.94" stop-color="#ECC84A"/>
<stop offset="0.97" stop-color="#EDCF59"/>
<stop offset="1" stop-color="#EED25E"/>
</linearGradient>
</defs>
</svg>
