<svg width="57" height="75" viewBox="0 0 57 75" fill="none" xmlns="http://www.w3.org/2000/svg">
<path d="M30.4378 2.90793e-05C25.3974 2.90793e-05 20.5634 2.00233 16.9993 5.56645C13.4352 9.13057 11.4329 13.9646 11.4329 19.005C11.4329 19.005 11.4329 19.005 11.4329 19.0666V51.2721H20.9309V35.4419C23.455 36.9069 26.2825 37.7709 29.1943 37.967C32.106 38.163 35.0238 37.6859 37.7215 36.5725C40.4191 35.4592 42.8241 33.7395 44.75 31.5469C46.676 29.3542 48.071 26.7475 48.8271 23.9288C49.5832 21.11 49.68 18.1551 49.11 15.2929C48.54 12.4307 47.3185 9.7383 45.5401 7.42432C43.7618 5.11034 41.4745 3.23698 38.8555 1.94948C36.2365 0.66198 33.3562 -0.00507569 30.4378 2.90793e-05ZM30.4378 28.5031C28.5568 28.5048 26.7175 27.9485 25.1528 26.9045C23.588 25.8606 22.3681 24.3759 21.6475 22.6384C20.9269 20.9009 20.7379 18.9886 21.1044 17.1437C21.4709 15.2987 22.3766 13.6039 23.7067 12.2738C25.0367 10.9437 26.7315 10.0381 28.5765 9.67157C30.4215 9.30502 32.3337 9.49403 34.0712 10.2147C35.8087 10.9353 37.2934 12.1552 38.3374 13.7199C39.3813 15.2847 39.9376 17.124 39.9359 19.005C39.9359 21.524 38.9352 23.9399 37.154 25.7211C35.3727 27.5024 32.9569 28.5031 30.4378 28.5031Z" fill="url(#paint0_linear_282_48)"/>
<path d="M31.1678 0C34.8513 0.22 38.3058 1.86062 40.804 4.57647C43.3022 7.29232 44.6492 10.8715 44.5615 14.5606C44.4737 18.2496 42.9581 21.7608 40.3335 24.3548C37.709 26.9487 34.1804 28.4233 30.4906 28.4679V37.9659C35.4867 37.9949 40.2928 36.0535 43.8671 32.5626C47.4414 29.0718 49.4957 24.3129 49.5848 19.3175C49.6739 14.3222 47.7906 9.49299 44.3431 5.87691C40.8955 2.26083 36.1617 0.149272 31.1678 0V0Z" fill="url(#paint1_linear_282_48)"/>
<path d="M34.2107 28.4944H5.69005C4.18015 28.4968 2.73288 29.0982 1.66604 30.1667C0.599204 31.2352 -1.79792e-06 32.6834 0 34.1933H0C0 35.7024 0.599486 37.1497 1.66658 38.2168C2.73367 39.2839 4.18096 39.8833 5.69005 39.8833H14.4846C11.9897 44.2292 10.9981 49.2767 11.6637 54.2434C12.3292 59.2101 14.6146 63.8186 18.1656 67.3543C21.7167 70.89 26.3349 73.1555 31.3044 73.7996C36.274 74.4437 41.3172 73.4304 45.6522 70.9167C49.9873 68.4031 53.372 64.5296 55.2817 59.8966C57.1915 55.2637 57.5194 50.1302 56.2149 45.2919C54.9103 40.4536 52.046 36.1808 48.0661 33.1359C44.0862 30.091 39.213 28.4441 34.2019 28.4505L34.2107 28.4944ZM34.2107 62.6524C31.9574 62.6541 29.7543 61.9874 27.88 60.7366C26.0058 59.4859 24.5447 57.7073 23.6816 55.6259C22.8185 53.5444 22.5922 51.2538 23.0314 49.0437C23.4706 46.8337 24.5554 44.8036 26.1487 43.2103C27.742 41.617 29.7721 40.5321 31.9822 40.093C34.1922 39.6538 36.4829 39.8801 38.5643 40.7432C40.6457 41.6062 42.4243 43.0674 43.6751 44.9416C44.9258 46.8158 45.5925 49.019 45.5908 51.2722C45.5908 52.7667 45.2964 54.2465 44.7245 55.6272C44.1526 57.0079 43.3144 58.2625 42.2576 59.3192C41.2009 60.3759 39.9464 61.2142 38.5657 61.7861C37.185 62.358 35.7051 62.6524 34.2107 62.6524Z" fill="url(#paint2_linear_282_48)"/>
<path d="M11.4329 39.8918V51.3247C11.4435 57.188 13.7165 62.821 17.778 67.0496C21.8396 71.2783 27.3764 73.7764 33.2345 74.0234C28.7938 73.7763 24.6249 71.8058 21.6151 68.5314C18.6053 65.2569 16.9924 60.937 17.1196 56.4913C17.2468 52.0456 19.1041 47.825 22.2962 44.728C25.4883 41.631 29.7631 39.9022 34.2107 39.9094H34.2986L11.4329 39.8918Z" fill="url(#paint3_linear_282_48)"/>
<defs>
<linearGradient id="paint0_linear_282_48" x1="43.8758" y1="5.56696" x2="4.80179" y2="44.641" gradientUnits="userSpaceOnUse">
<stop offset="0.02" stop-color="#7900DD"/>
<stop offset="0.07" stop-color="#8411C6"/>
<stop offset="0.22" stop-color="#A44280"/>
<stop offset="0.36" stop-color="#BE6A49"/>
<stop offset="0.48" stop-color="#D08621"/>
<stop offset="0.58" stop-color="#DC9809"/>
<stop offset="0.63" stop-color="#E09E00"/>
<stop offset="0.68" stop-color="#E3AC1C"/>
<stop offset="0.77" stop-color="#EACE5E"/>
</linearGradient>
<linearGradient id="paint1_linear_282_48" x1="23.1208" y1="30.6225" x2="46.0305" y2="7.71279" gradientUnits="userSpaceOnUse">
<stop stop-color="#7900E1"/>
<stop offset="0.08" stop-color="#7D06D8"/>
<stop offset="0.21" stop-color="#8918C0"/>
<stop offset="0.37" stop-color="#9C3598"/>
<stop offset="0.56" stop-color="#B65C61"/>
<stop offset="0.77" stop-color="#D78E1B"/>
<stop offset="0.85" stop-color="#E4A200"/>
<stop offset="1" stop-color="#EED25E"/>
</linearGradient>
<linearGradient id="paint2_linear_282_48" x1="12.7433" y1="62.0104" x2="44.9488" y2="29.8048" gradientUnits="userSpaceOnUse">
<stop offset="0.02" stop-color="#7900DD"/>
<stop offset="0.8" stop-color="#E09E00"/>
<stop offset="1" stop-color="#EACE5E"/>
</linearGradient>
<linearGradient id="paint3_linear_282_48" x1="36.8226" y1="42.4686" x2="15.0122" y2="64.2791" gradientUnits="userSpaceOnUse">
<stop stop-color="#7900E1"/>
<stop offset="0.08" stop-color="#7D06D8"/>
<stop offset="0.21" stop-color="#8918C0"/>
<stop offset="0.37" stop-color="#9C3598"/>
<stop offset="0.56" stop-color="#B65C61"/>
<stop offset="0.77" stop-color="#D78E1B"/>
<stop offset="0.85" stop-color="#E4A200"/>
<stop offset="0.87" stop-color="#E6AB11"/>
<stop offset="0.9" stop-color="#E9BC32"/>
<stop offset="0.94" stop-color="#ECC84A"/>
<stop offset="0.97" stop-color="#EDCF59"/>
<stop offset="1" stop-color="#EED25E"/>
</linearGradient>
</defs>
</svg>
