<svg width="171" height="75" viewBox="0 0 171 75" fill="none" xmlns="http://www.w3.org/2000/svg">
<path d="M78.5601 41.9701C84.1101 41.9701 87.3301 38.9801 87.3301 34.5101C87.3301 30.2401 84.93 28.2401 81.39 27.6501C83.79 26.5001 84.9401 24.3701 84.9401 21.7701C84.9401 16.7401 81.3901 14.8701 76.6001 14.8701H69.76C69.31 14.8701 68.9501 15.2301 68.9501 15.6801V41.1401C68.9501 41.5901 69.32 41.9601 69.77 41.9601H78.5601V41.9701ZM74.0601 18.8501H75.2101C78.3001 18.8501 79.9701 19.9301 79.9701 22.2701C79.9701 24.8601 78.2601 25.9501 75.2101 25.9501H74.0601V18.8501ZM74.0601 30.3701H76.8201C80.1001 30.3701 81.9401 31.5501 81.9401 34.3101C81.9401 36.8101 80.1001 37.9901 76.8201 37.9901H74.0601V30.3701Z" fill="#E09E00"/>
<path d="M91.3101 41.9701H104.66C105.11 41.9701 105.47 41.6101 105.47 41.1601V38.2901C105.47 37.8401 105.11 37.4801 104.66 37.4801H95.62V30.6501H104.26C104.71 30.6501 105.07 30.2901 105.07 29.8401V26.9701C105.07 26.5201 104.71 26.1601 104.26 26.1601H95.62V19.3901H104.66C105.11 19.3901 105.47 19.0301 105.47 18.5801V15.7101C105.47 15.2601 105.11 14.9001 104.66 14.9001H91.3101C90.8601 14.9001 90.5 15.2601 90.5 15.7101V41.1801C90.5 41.6001 90.8601 41.9701 91.3101 41.9701Z" fill="#E09E00"/>
<path d="M115.21 41.1501V31.5201H116.02C116.27 31.5201 116.51 31.6401 116.67 31.8401L124.23 41.6501C124.38 41.8501 124.62 41.9701 124.88 41.9701H129.29C129.98 41.9701 130.36 41.1701 129.92 40.6401L122.9 32.0801C122.55 31.6501 122.72 31.0101 123.24 30.8001C126.3 29.5701 128.26 26.8501 128.26 23.0201C128.26 17.6301 124.48 14.8701 119.16 14.8701H110.91C110.46 14.8701 110.1 15.2301 110.1 15.6801V41.1501C110.1 41.6001 110.46 41.9601 110.91 41.9601H114.4C114.85 41.9701 115.21 41.6001 115.21 41.1501ZM115.21 18.9801H117.57C120.49 18.9801 122.86 20.1601 122.86 23.1801C122.86 26.2001 120.49 27.3801 117.57 27.3801H115.21V18.9801Z" fill="#E09E00"/>
<path d="M143.83 41.9701C151.01 41.9701 156.98 36.0601 156.98 28.4401C156.98 20.8201 151 14.9101 143.83 14.9101C136.66 14.9101 130.68 20.8201 130.68 28.4401C130.68 36.0601 136.66 41.9701 143.83 41.9701ZM143.83 19.6501C148.83 19.6501 151.64 23.8901 151.64 28.4401C151.64 32.9901 148.83 37.2301 143.83 37.2301C138.83 37.2301 136.02 32.9901 136.02 28.4401C136.02 23.8801 138.84 19.6501 143.83 19.6501Z" fill="#E09E00"/>
<path d="M76.8401 56.9701C75.3702 56.3001 74.3001 55.6201 74.3001 54.5501C74.3001 53.2701 75.2501 52.2501 77.0501 52.2501C78.6001 52.2501 79.75 52.8601 80.36 53.2701C80.64 53.4601 81.0201 53.3801 81.2101 53.1001L82.3201 51.3901C82.4901 51.1301 82.4401 50.7801 82.1901 50.5801C81.4401 49.9901 79.6601 48.8801 76.8101 48.8801C73.7201 48.8801 70.6802 51.1801 70.6802 54.7001C70.6802 56.7901 72.0801 58.5501 74.6201 59.6901C77.23 60.8501 79.25 61.6601 79.25 63.3201C79.25 65.3901 77.3001 65.7901 75.9501 65.7901C74.0902 65.7901 72.4401 64.5901 71.6601 63.9201C71.3901 63.6901 70.9801 63.7301 70.7701 64.0201L69.3901 65.8901C69.2101 66.1401 69.2402 66.4801 69.4602 66.6901C70.2902 67.4901 72.5002 69.2201 76.2202 69.2201C79.9701 69.2201 83.3 67.4901 83.3 63.1201C83.3 59.5101 79.5201 58.1801 76.8401 56.9701Z" fill="#E09E00"/>
<path d="M94.92 49.2301H85.3101C84.9701 49.2301 84.7001 49.5001 84.7001 49.8401V68.2101C84.7001 68.5501 84.9701 68.8201 85.3101 68.8201H94.92C95.26 68.8201 95.53 68.5501 95.53 68.2101V66.1701C95.53 65.8301 95.26 65.5601 94.92 65.5601H88.4V60.6201H94.63C94.97 60.6201 95.24 60.3501 95.24 60.0101V57.9701C95.24 57.6301 94.97 57.3601 94.63 57.3601H88.4V52.4701H94.92C95.26 52.4701 95.53 52.2001 95.53 51.8601V49.8201C95.53 49.5001 95.26 49.2301 94.92 49.2301Z" fill="#E09E00"/>
<path d="M110.15 49.2301H97.5901C97.2501 49.2301 96.9801 49.5001 96.9801 49.8401V51.8801C96.9801 52.2201 97.2501 52.4901 97.5901 52.4901H102.02V68.2201C102.02 68.5601 102.29 68.8301 102.63 68.8301H105.12C105.46 68.8301 105.73 68.5601 105.73 68.2201V52.4901H110.16C110.5 52.4901 110.77 52.2201 110.77 51.8801V49.8401C110.76 49.5001 110.49 49.2301 110.15 49.2301Z" fill="#E09E00"/>
<path d="M126.22 49.0701H123.73C123.39 49.0701 123.12 49.3401 123.12 49.6801V60.6601C123.12 64.1701 122.09 65.5501 119.6 65.5501C117.11 65.5501 115.76 64.1801 115.76 60.6601V49.6801C115.76 49.3401 115.49 49.0701 115.15 49.0701H112.66C112.32 49.0701 112.05 49.3401 112.05 49.6801V61.7001C112.05 66.5401 114.61 69.0401 119.44 69.0401C124.26 69.0401 126.83 66.5501 126.83 61.7001V49.6801C126.83 49.3401 126.55 49.0701 126.22 49.0701Z" fill="#E09E00"/>
<path d="M134.26 49.2301H129.55C129.21 49.2301 128.94 49.5001 128.94 49.8401V68.2101C128.94 68.5501 129.21 68.8201 129.55 68.8201H134.26C139.65 68.8201 144.14 64.7601 144.14 59.0401C144.14 53.3401 139.63 49.2301 134.26 49.2301ZM133.83 65.5201H132.64V52.5301H133.83C137.49 52.5301 140.15 55.3301 140.15 59.0401C140.15 62.7401 137.49 65.5201 133.83 65.5201Z" fill="#E09E00"/>
<path d="M148.98 49.0701H146.7C146.26 49.0701 145.91 49.4101 146.03 49.9901C146.04 50.0301 146.04 50.0701 146.04 50.1101V68.0001C145.88 68.2901 146.25 68.6601 146.7 68.6601H148.98C149.32 68.6601 149.59 68.3901 149.59 68.0501V49.6801C149.59 49.3401 149.32 49.0701 148.98 49.0701Z" fill="#E09E00"/>
<path d="M161.01 49.0901C155.82 49.0901 151.5 53.3601 151.5 58.8701C151.5 64.3801 155.82 68.6501 161.01 68.6501C166.2 68.6501 170.52 64.3801 170.52 58.8701C170.52 53.3701 166.2 49.0901 161.01 49.0901ZM161.01 65.2301C157.4 65.2301 155.36 62.1701 155.36 58.8801C155.36 55.5901 157.39 52.5201 161.01 52.5201C164.62 52.5201 166.66 55.5801 166.66 58.8801C166.66 62.1701 164.63 65.2301 161.01 65.2301Z" fill="#E09E00"/>
<path d="M30.4378 2.90793e-05C25.3974 2.90793e-05 20.5634 2.00233 16.9993 5.56645C13.4352 9.13057 11.4329 13.9646 11.4329 19.005C11.4329 19.005 11.4329 19.005 11.4329 19.0666V51.2721H20.9309V35.4419C23.455 36.9069 26.2825 37.7709 29.1943 37.967C32.106 38.163 35.0238 37.6859 37.7215 36.5725C40.4191 35.4592 42.8241 33.7395 44.75 31.5469C46.676 29.3542 48.071 26.7475 48.8271 23.9288C49.5832 21.11 49.68 18.1551 49.11 15.2929C48.54 12.4307 47.3185 9.7383 45.5401 7.42432C43.7618 5.11034 41.4745 3.23698 38.8555 1.94948C36.2365 0.66198 33.3562 -0.00507569 30.4378 2.90793e-05ZM30.4378 28.5031C28.5568 28.5048 26.7175 27.9485 25.1528 26.9045C23.588 25.8606 22.3681 24.3759 21.6475 22.6384C20.9269 20.9009 20.7379 18.9886 21.1044 17.1437C21.4709 15.2987 22.3766 13.6039 23.7067 12.2738C25.0367 10.9437 26.7315 10.0381 28.5765 9.67157C30.4215 9.30502 32.3337 9.49403 34.0712 10.2147C35.8087 10.9353 37.2934 12.1552 38.3374 13.7199C39.3813 15.2847 39.9376 17.124 39.9359 19.005C39.9359 21.524 38.9352 23.9399 37.154 25.7211C35.3727 27.5024 32.9569 28.5031 30.4378 28.5031Z" fill="url(#paint0_linear_282_61)"/>
<path d="M31.1678 0C34.8513 0.22 38.3058 1.86062 40.804 4.57647C43.3022 7.29232 44.6492 10.8715 44.5615 14.5606C44.4737 18.2496 42.9581 21.7608 40.3335 24.3548C37.709 26.9487 34.1804 28.4233 30.4906 28.4679V37.9659C35.4867 37.9949 40.2928 36.0535 43.8671 32.5626C47.4414 29.0718 49.4957 24.3129 49.5848 19.3175C49.6739 14.3222 47.7906 9.49299 44.3431 5.87691C40.8955 2.26083 36.1617 0.149272 31.1678 0V0Z" fill="url(#paint1_linear_282_61)"/>
<path d="M34.2107 28.4944H5.69005C4.18015 28.4968 2.73288 29.0982 1.66604 30.1667C0.599204 31.2352 -1.79792e-06 32.6834 0 34.1933H0C0 35.7024 0.599486 37.1497 1.66658 38.2168C2.73367 39.2839 4.18096 39.8833 5.69005 39.8833H14.4846C11.9897 44.2292 10.9981 49.2767 11.6637 54.2434C12.3292 59.2101 14.6146 63.8186 18.1656 67.3543C21.7167 70.89 26.3349 73.1555 31.3044 73.7996C36.274 74.4437 41.3172 73.4304 45.6522 70.9167C49.9873 68.4031 53.372 64.5296 55.2817 59.8966C57.1915 55.2637 57.5194 50.1302 56.2149 45.2919C54.9103 40.4536 52.046 36.1808 48.0661 33.1359C44.0862 30.091 39.213 28.4441 34.2019 28.4505L34.2107 28.4944ZM34.2107 62.6524C31.9574 62.6541 29.7543 61.9874 27.88 60.7366C26.0058 59.4859 24.5447 57.7073 23.6816 55.6259C22.8185 53.5444 22.5922 51.2538 23.0314 49.0437C23.4706 46.8337 24.5554 44.8036 26.1487 43.2103C27.742 41.617 29.7721 40.5321 31.9822 40.093C34.1922 39.6538 36.4829 39.8801 38.5643 40.7432C40.6457 41.6062 42.4243 43.0674 43.6751 44.9416C44.9258 46.8158 45.5925 49.019 45.5908 51.2722C45.5908 52.7667 45.2964 54.2465 44.7245 55.6272C44.1526 57.0079 43.3144 58.2625 42.2576 59.3192C41.2009 60.3759 39.9464 61.2142 38.5657 61.7861C37.185 62.358 35.7051 62.6524 34.2107 62.6524Z" fill="url(#paint2_linear_282_61)"/>
<path d="M11.4329 39.8918V51.3247C11.4435 57.188 13.7165 62.821 17.778 67.0496C21.8396 71.2783 27.3764 73.7764 33.2345 74.0234C28.7938 73.7763 24.6249 71.8058 21.6151 68.5314C18.6053 65.2569 16.9924 60.937 17.1196 56.4913C17.2468 52.0456 19.1041 47.825 22.2962 44.728C25.4883 41.631 29.7631 39.9022 34.2107 39.9094H34.2986L11.4329 39.8918Z" fill="url(#paint3_linear_282_61)"/>
<defs>
<linearGradient id="paint0_linear_282_61" x1="43.8758" y1="5.56696" x2="4.80179" y2="44.641" gradientUnits="userSpaceOnUse">
<stop offset="0.02" stop-color="#7900DD"/>
<stop offset="0.07" stop-color="#8411C6"/>
<stop offset="0.22" stop-color="#A44280"/>
<stop offset="0.36" stop-color="#BE6A49"/>
<stop offset="0.48" stop-color="#D08621"/>
<stop offset="0.58" stop-color="#DC9809"/>
<stop offset="0.63" stop-color="#E09E00"/>
<stop offset="0.68" stop-color="#E3AC1C"/>
<stop offset="0.77" stop-color="#EACE5E"/>
</linearGradient>
<linearGradient id="paint1_linear_282_61" x1="23.1208" y1="30.6225" x2="46.0305" y2="7.71279" gradientUnits="userSpaceOnUse">
<stop stop-color="#7900E1"/>
<stop offset="0.08" stop-color="#7D06D8"/>
<stop offset="0.21" stop-color="#8918C0"/>
<stop offset="0.37" stop-color="#9C3598"/>
<stop offset="0.56" stop-color="#B65C61"/>
<stop offset="0.77" stop-color="#D78E1B"/>
<stop offset="0.85" stop-color="#E4A200"/>
<stop offset="1" stop-color="#EED25E"/>
</linearGradient>
<linearGradient id="paint2_linear_282_61" x1="12.7433" y1="62.0104" x2="44.9488" y2="29.8048" gradientUnits="userSpaceOnUse">
<stop offset="0.02" stop-color="#7900DD"/>
<stop offset="0.8" stop-color="#E09E00"/>
<stop offset="1" stop-color="#EACE5E"/>
</linearGradient>
<linearGradient id="paint3_linear_282_61" x1="36.8226" y1="42.4686" x2="15.0122" y2="64.2791" gradientUnits="userSpaceOnUse">
<stop stop-color="#7900E1"/>
<stop offset="0.08" stop-color="#7D06D8"/>
<stop offset="0.21" stop-color="#8918C0"/>
<stop offset="0.37" stop-color="#9C3598"/>
<stop offset="0.56" stop-color="#B65C61"/>
<stop offset="0.77" stop-color="#D78E1B"/>
<stop offset="0.85" stop-color="#E4A200"/>
<stop offset="0.87" stop-color="#E6AB11"/>
<stop offset="0.9" stop-color="#E9BC32"/>
<stop offset="0.94" stop-color="#ECC84A"/>
<stop offset="0.97" stop-color="#EDCF59"/>
<stop offset="1" stop-color="#EED25E"/>
</linearGradient>
</defs>
</svg>
